<svg width="3024" height="3024" viewBox="0 0 3024 3024" fill="none" xmlns="http://www.w3.org/2000/svg">
<g clip-path="url(#clip0_173_2)">
<circle cx="1512" cy="1512" r="1507" fill="white" stroke="black" stroke-width="10"/>
<circle cx="1512" cy="1088" r="297.5" fill="#FFE078" stroke="black" stroke-width="5"/>
<path d="M65.2053 1920.25L989.008 552.454L1920.45 1920.25H65.2053Z" fill="#BDCBF3" stroke="black" stroke-width="5"/>
<path d="M1094.55 1920.25L2026 552.442L2957.45 1920.25H1094.55Z" fill="#BDCBF3" stroke="black" stroke-width="5"/>
<line x1="1049.67" y1="150" x2="1049.67" y2="266.268" stroke="black" stroke-width="4"/>
<line x1="1105.8" y1="210.134" x2="989.534" y2="210.134" stroke="black" stroke-width="4"/>
<line x1="1008.05" y1="165.693" x2="1090.27" y2="247.907" stroke="black" stroke-width="4"/>
<line x1="1090.27" y1="168.522" x2="1008.05" y2="250.736" stroke="black" stroke-width="4"/>
<line x1="1822.52" y1="283.693" x2="1904.73" y2="365.907" stroke="black" stroke-width="4"/>
<line x1="1904.74" y1="286.522" x2="1822.52" y2="368.736" stroke="black" stroke-width="4"/>
<line x1="1864.13" y1="268" x2="1864.13" y2="384.268" stroke="black" stroke-width="4"/>
<line x1="1920.27" y1="328.134" x2="1804" y2="328.134" stroke="black" stroke-width="4"/>
<line x1="1032.52" y1="1127.69" x2="1114.73" y2="1209.91" stroke="black" stroke-width="4"/>
<line x1="1114.74" y1="1130.52" x2="1032.52" y2="1212.74" stroke="black" stroke-width="4"/>
<line x1="1074.13" y1="1112" x2="1074.13" y2="1228.27" stroke="black" stroke-width="4"/>
<line x1="1130.27" y1="1172.13" x2="1014" y2="1172.13" stroke="black" stroke-width="4"/>
<line x1="551.521" y1="1422.69" x2="633.735" y2="1504.91" stroke="black" stroke-width="4"/>
<line x1="633.735" y1="1425.52" x2="551.521" y2="1507.74" stroke="black" stroke-width="4"/>
<line x1="593.134" y1="1407" x2="593.134" y2="1523.27" stroke="black" stroke-width="4"/>
<line x1="649.268" y1="1467.13" x2="533" y2="1467.13" stroke="black" stroke-width="4"/>
<line x1="1309.52" y1="505.692" x2="1391.73" y2="587.906" stroke="black" stroke-width="4"/>
<line x1="1391.74" y1="508.521" x2="1309.52" y2="590.734" stroke="black" stroke-width="4"/>
<line x1="1351.13" y1="489.999" x2="1351.13" y2="606.267" stroke="black" stroke-width="4"/>
<line x1="1407.27" y1="550.133" x2="1291" y2="550.133" stroke="black" stroke-width="4"/>
<line x1="1904.52" y1="1069.69" x2="1986.73" y2="1151.91" stroke="black" stroke-width="4"/>
<line x1="1946.13" y1="1054" x2="1946.13" y2="1170.27" stroke="black" stroke-width="4"/>
<line x1="2002.27" y1="1114.13" x2="1886" y2="1114.13" stroke="black" stroke-width="4"/>
<line x1="1986.74" y1="1072.52" x2="1904.52" y2="1154.74" stroke="black" stroke-width="4"/>
<line x1="2266.52" y1="1504.69" x2="2348.74" y2="1586.91" stroke="black" stroke-width="4"/>
<line x1="2308.13" y1="1489" x2="2308.13" y2="1605.27" stroke="black" stroke-width="4"/>
<line x1="2364.27" y1="1549.13" x2="2248" y2="1549.13" stroke="black" stroke-width="4"/>
<line x1="2348.74" y1="1507.52" x2="2266.52" y2="1589.74" stroke="black" stroke-width="4"/>
<line x1="2456.52" y1="745.692" x2="2538.74" y2="827.906" stroke="black" stroke-width="4"/>
<line x1="2498.13" y1="730" x2="2498.13" y2="846.268" stroke="black" stroke-width="4"/>
<line x1="2554.27" y1="790.134" x2="2438" y2="790.134" stroke="black" stroke-width="4"/>
<line x1="2538.74" y1="748.521" x2="2456.52" y2="830.734" stroke="black" stroke-width="4"/>
<line x1="453.134" y1="705.999" x2="453.134" y2="822.267" stroke="black" stroke-width="4"/>
<line x1="509.268" y1="766.133" x2="393" y2="766.133" stroke="black" stroke-width="4"/>
<line x1="411.521" y1="721.693" x2="493.735" y2="803.907" stroke="black" stroke-width="4"/>
<line x1="493.735" y1="724.522" x2="411.521" y2="806.735" stroke="black" stroke-width="4"/>
<path d="M1549.5 2619C1559.5 2760.5 1221.5 2992 1221.5 2992C1418.42 3025.39 1528.02 3025.65 1722.5 3003.5C1722.5 3003.5 2026.5 2774.5 2027.5 2619C2028.5 2463.5 1722.5 2445 1722.5 2357C1722.5 2269 1832 2201.5 1828 2122C1824 2042.5 1612 1920.5 1612 1920.5L1375.5 1921C1375.5 1921 1524 2051 1529 2122C1534 2193 1307 2249 1314.5 2357C1322 2465 1539.5 2477.5 1549.5 2619Z" fill="#608EF7" stroke="black" stroke-width="5"/>
</g>
<defs>
<clipPath id="clip0_173_2">
<rect width="3024" height="3024" fill="white"/>
</clipPath>
</defs>
</svg>
